<?xml version="1.0" encoding="UTF-8" standalone="no"?>
<!-- Created with Inkscape (http://www.inkscape.org/) -->

<svg
   width="420mm"
   height="297mm"
   viewBox="0 0 420 297"
   version="1.1"
   id="svg1"
   inkscape:version="1.2.2 (b0a8486541, 2022-12-01)"
   sodipodi:docname="moveit_pro_loves_franka.svg"
   xmlns:inkscape="http://www.inkscape.org/namespaces/inkscape"
   xmlns:sodipodi="http://sodipodi.sourceforge.net/DTD/sodipodi-0.dtd"
   xmlns="http://www.w3.org/2000/svg"
   xmlns:svg="http://www.w3.org/2000/svg">
  <sodipodi:namedview
     id="namedview1"
     pagecolor="#ffffff"
     bordercolor="#000000"
     borderopacity="0.25"
     inkscape:showpageshadow="2"
     inkscape:pageopacity="0.0"
     inkscape:pagecheckerboard="0"
     inkscape:deskcolor="#d1d1d1"
     inkscape:document-units="mm"
     inkscape:zoom="0.53165938"
     inkscape:cx="827.59755"
     inkscape:cy="467.40453"
     inkscape:window-width="2560"
     inkscape:window-height="1371"
     inkscape:window-x="0"
     inkscape:window-y="0"
     inkscape:window-maximized="1"
     inkscape:current-layer="layer1"
     showgrid="false"
     showguides="true">
    <sodipodi:guide
       position="526.51974,158.65171"
       orientation="1,0"
       id="guide970"
       inkscape:locked="false" />
  </sodipodi:namedview>
  <defs
     id="defs1" />
  <g
     inkscape:label="Layer 1"
     inkscape:groupmode="layer"
     id="layer1">
    <path
       id="rect1"
       style="fill:#008780;stroke-width:0.385"
       d="M -100,-100 H 99.999983 V 99.999983 H -100 Z" />
    <path
       d="M 98.482379,97.635094 H 87.368643 l -7.711584,-18.12221 -7.756937,18.12221 H 60.80906 V 63.772199 h 8.255919 v 24.767765 l 7.802309,-18.25829 h 5.534188 l 7.8023,18.25829 V 63.772199 h 8.278603 z m -61.692613,-5.71564 c 2.661245,0 4.725229,-0.98285 6.191944,-2.94855 1.466706,-1.96569 2.200064,-4.73279 2.200064,-8.30128 0,-3.55337 -0.733358,-6.31291 -2.200064,-8.2786 -1.466715,-1.9657 -3.530699,-2.94855 -6.191944,-2.94855 -2.676368,0 -4.747914,0.98285 -6.21463,2.94855 -1.466706,1.96569 -2.200063,4.72523 -2.200063,8.2786 0,3.56849 0.733357,6.33559 2.200063,8.30128 1.466716,1.9657 3.538262,2.94855 6.21463,2.94855 z m 0,6.32803 c -5.443471,0 -9.707519,-1.55743 -12.792153,-4.67231 -3.084624,-3.11487 -4.626941,-7.41672 -4.626941,-12.90555 0,-5.47371 1.542317,-9.76799 4.626941,-12.88287 3.084634,-3.114879 7.348682,-4.672311 12.792153,-4.672311 5.428348,0 9.692386,1.557432 12.792144,4.672311 3.084624,3.11488 4.626941,7.40916 4.626941,12.88287 0,5.48883 -1.542317,9.79068 -4.626941,12.90555 -3.099758,3.11488 -7.363796,4.67231 -12.792144,4.67231 z M 18.05517,97.635094 H 9.2775734 L 0.29585877,72.640514 -8.6631791,97.635094 H -17.440774 L -4.8981127,63.772199 H 5.5125164 Z m -39.986806,0 h -23.565675 v -6.6002 h 14.833451 v -6.30535 h -13.948881 v -6.60021 h 9.313317 4.635564 v -7.75693 h -15.332433 v -6.600205 h 24.064657 z m -31.730868,0 h -8.732224 V 63.772199 h 8.732224 z m -13.245781,0 h -31.209212 v -6.6002 h 11.227152 V 63.772199 h 8.732233 v 27.262695 h 11.249827 z"
       id="text4"
       style="font-weight:bold;font-size:50.8px;font-family:Sans;-inkscape-font-specification:'Sans, Bold';stroke-width:0.264583"
       aria-label="MOVEIT PRO"
       sodipodi:nodetypes="ccccccccccccccsssssssssssssscscscccccccccccccccccccccccccccccccccccc" />
    <path
       d="M 51.858124,55.709466 H 37.364889 c -4.309411,0 -7.613287,-0.96016 -9.911647,-2.880494 -2.313466,-1.90522 -3.470204,-4.62695 -3.470204,-8.1652 0,-3.55338 1.156738,-6.29024 3.470204,-8.21057 2.29836,-1.90521 5.602236,-2.85782 9.911647,-2.85782 h 5.761002 v -11.74881 h 8.732233 z m -8.732233,-6.328024 v -9.45803 h -4.831069 c -1.69353,0 -3.00147,0.40827 -3.923841,1.22478 -0.922362,0.83165 -1.383542,2.00351 -1.383542,3.51558 0,1.51207 0.46118,2.67636 1.383542,3.49289 0.922371,0.81652 2.230311,1.22478 3.923841,1.22478 z M 5.4071974,40.694572 c -1.8296088,0 -3.1375496,0.34022 -3.9238318,1.02065 -0.80139723,0.68043 -1.20210048,1.79937 -1.20210048,3.35681 0,1.54231 0.40070325,2.64613 1.20210048,3.31144 0.7862822,0.66531 2.094223,0.99797 3.9238318,0.99797 h 3.67434 v -8.68687 z m 3.67434,-6.03318 V 21.846572 H 17.813771 V 55.709466 H 4.4772734 c -4.46061393,0 -7.7266986,-0.74847 -9.7982357,-2.245424 -2.0866613,-1.49696 -3.1299964,-3.86336 -3.1299964,-7.09919 0,-2.23787 0.5443443,-4.07504 1.6330423,-5.51151 1.073574,-1.43647 2.6990453,-2.49492 4.876432,-3.17535 -1.1945384,-0.27218 -2.2605503,-0.89213 -3.1980359,-1.85986 -0.9526005,-0.9526 -1.9127721,-2.40419 -2.8804965,-4.35477 l -4.7403522,-9.61679 h 9.2992538 l 4.12795957,8.41469 c 0.83164513,1.69353 1.67840503,2.85026 2.54028903,3.47021 0.84676,0.61995 1.980812,0.92992 3.402164,0.92992 z m -42.5043804,15.33244 c 2.661244,0 4.725229,-0.98285 6.191944,-2.94855 1.466706,-1.9657 2.200063,-4.73279 2.200063,-8.30128 0,-3.55338 -0.733357,-6.31291 -2.200063,-8.27861 -1.466715,-1.96569 -3.5307,-2.94854 -6.191944,-2.94854 -2.676368,0 -4.747915,0.98285 -6.21463,2.94854 -1.466706,1.9657 -2.200063,4.72523 -2.200063,8.27861 0,3.56849 0.733357,6.33558 2.200063,8.30128 1.466715,1.9657 3.538262,2.94855 6.21463,2.94855 z m 0,6.328032 c -5.443472,0 -9.707519,-1.557428 -12.792153,-4.672322 -3.084624,-3.11487 -4.626941,-7.41672 -4.626941,-12.90554 0,-5.47371 1.542317,-9.768 4.626941,-12.88287 3.084634,-3.11488 7.348681,-4.67231 12.792153,-4.67231 5.428347,0 9.692395,1.55743 12.792144,4.67231 3.084633,3.11487 4.62695,7.40916 4.62695,12.88287 0,5.48882 -1.542317,9.79067 -4.62695,12.90554 -3.099749,3.114894 -7.363797,4.672322 -12.792144,4.672322 z"
       id="text4-2"
       style="font-weight:bold;font-size:50.8px;font-family:Sans;-inkscape-font-specification:'Sans, Bold';stroke-width:0.264583"
       aria-label="MOVEIT PRO"
       sodipodi:nodetypes="cscscsccccccscssscscscsccsccccscsccccccccscsssssssssssssscscs" />
    <path
       id="rect8"
       style="fill:#ff0000;stroke-width:0.43821"
       d="m -21.752754,9.4985873 c -5.128328,6e-6 -10.256662,-1.8203108 -14.186247,-5.4607379 -7.85918,-7.280846 -7.859186,-19.0038064 -5e-6,-26.2846604 l 7.597772,-7.03868 C 0.45226318,-55.516166 0.03126114,-55.570182 0.03126114,-55.570182 c 0,0 0.65243065,-0.288655 28.37248386,26.284683 l 7.597772,7.03868 c 7.859169,7.280846 7.859164,19.0038334 0,26.2846684 -7.859181,7.2808566 -20.513315,7.2808566 -28.3724955,1.74e-5 L 0.03125563,-3.000822 -7.5665231,4.0378668 C -11.496107,7.6782765 -16.624436,9.4985933 -21.752754,9.4985873 Z"
       sodipodi:nodetypes="ssscccssscss" />
    <path
       d="m 98.511083,-65.548713 h -22.20479 v -6.219052 h 13.976834 v -5.941222 H 77.139778 v -6.219043 h 13.143349 v -13.528035 h 8.227956 z m -41.588559,-14.1478 c -1.723952,0 -2.956362,0.320576 -3.69723,0.961708 -0.755115,0.641141 -1.132684,1.695455 -1.132684,3.162953 0,1.45325 0.377569,2.493317 1.132684,3.1202 0.740868,0.626905 1.973278,0.940351 3.69723,0.940351 h 3.462153 v -8.185212 z m 3.462153,-5.684767 v -12.074785 h 8.227947 v 31.907352 H 56.046305 c -4.203021,0 -7.280497,-0.705252 -9.232408,-2.115758 -1.966159,-1.410505 -2.949243,-3.640249 -2.949243,-6.689219 0,-2.108639 0.512909,-3.839711 1.538738,-5.193224 1.011581,-1.353524 2.54319,-2.350846 4.594837,-2.991988 -1.125555,-0.256444 -2.130007,-0.840603 -3.013355,-1.752438 -0.897597,-0.897596 -1.802321,-2.265357 -2.714166,-4.103294 l -4.466594,-9.061431 h 8.762232 l 3.889573,7.928757 c 0.783623,1.59572 1.581483,2.68566 2.393592,3.26981 0.79786,0.584138 1.866422,0.876218 3.205697,0.876218 z m -44.836991,-6.261786 h 12.865517 l 2.030281,-5.812999 h 8.27069 L 26.895843,-65.548713 H 17.086424 L 5.2680918,-97.456065 h 8.2706912 z m 10.81388,5.919843 h -8.740855 l 4.359739,12.694561 z M 1.0365749,-65.548713 H -8.1530887 L -19.757698,-87.432927 v 21.884214 h -7.800526 v -31.907352 h 9.189654 l 11.6046199,21.884213 v -21.884213 h 7.800525 z m -36.6304109,0 h -8.227957 v -11.647365 l -11.861065,11.647365 h -9.552973 l 15.365962,-15.109518 -16.947435,-16.797834 h 10.300961 l 12.69455,12.566328 v -12.566328 h 8.227957 z m -53.278648,-26.094353 h 12.865517 l 2.03028,-5.812999 h 8.27069 l -11.818331,31.907352 h -9.809428 l -11.81832,-31.907352 h 8.270699 z m 10.813869,5.919843 h -8.740845 l 4.35973,12.694561 z"
       id="text4-6"
       style="font-weight:bold;font-size:50.8px;font-family:Sans;-inkscape-font-specification:'Sans, Bold';stroke-width:0.264583"
       aria-label="FRANKA"
       sodipodi:nodetypes="cccccccccccscscsccsccccscsccccccccscccccccccccccccccccccccccccccccccccccccccccccccccc" />
  </g>
</svg>
