<?xml version="1.0" encoding="UTF-8" standalone="no"?>
<!-- Created with Inkscape (http://www.inkscape.org/) -->

<svg
   width="420mm"
   height="297mm"
   viewBox="0 0 420 297"
   version="1.1"
   id="svg1"
   inkscape:version="1.2.2 (b0a8486541, 2022-12-01)"
   sodipodi:docname="wipe_special.svg"
   xmlns:inkscape="http://www.inkscape.org/namespaces/inkscape"
   xmlns:sodipodi="http://sodipodi.sourceforge.net/DTD/sodipodi-0.dtd"
   xmlns="http://www.w3.org/2000/svg"
   xmlns:svg="http://www.w3.org/2000/svg">
  <sodipodi:namedview
     id="namedview1"
     pagecolor="#ffffff"
     bordercolor="#000000"
     borderopacity="0.25"
     inkscape:showpageshadow="2"
     inkscape:pageopacity="0.0"
     inkscape:pagecheckerboard="0"
     inkscape:deskcolor="#d1d1d1"
     inkscape:document-units="mm"
     inkscape:zoom="0.53165938"
     inkscape:cx="788.09858"
     inkscape:cy="463.64272"
     inkscape:window-width="2560"
     inkscape:window-height="1371"
     inkscape:window-x="0"
     inkscape:window-y="0"
     inkscape:window-maximized="1"
     inkscape:current-layer="layer1"
     showgrid="false" />
  <defs
     id="defs1" />
  <g
     inkscape:label="Layer 1"
     inkscape:groupmode="layer"
     id="layer1">
    <path
       id="rect1"
       style="fill:#008780;stroke-width:0.385"
       d="M -100,-100 H 99.999983 V 99.999983 H -100 Z" />
  </g>
  <g
     inkscape:groupmode="layer"
     id="layer2"
     inkscape:label="Layer 2">
    <path
       style="fill:none;stroke:#000000;stroke-width:0.385;stroke-opacity:1"
       d="m -91.915615,-26.173529 c 10.38795,-40.957851 32.230855,-64.336399 48.575687,-63.425939 25.417693,1.415847 -49.44193,66.722603 -37.443824,118.207647 7.57071,32.486654 17.02444,-95.741997 111.907095,-119.508578 C 94.701299,-106.82566 -77.999361,-4.264007 -61.777374,76.909975 -47.046909,150.62046 -15.587858,-72.291246 84.114334,-78.931887 145.27626,-83.005563 -35.252805,14.024078 -11.282869,82.810269 3.7891336,126.06218 14.783253,1.1649565 81.743303,-16.245045 114.4837,-24.757739 11.374034,38.281011 56.622818,86.078737 70.734273,100.98512 61.782838,29.271334 88.384566,13.981407"
       id="path1229"
       sodipodi:nodetypes="cssssssssz" />
  </g>
</svg>
