# Blender 4.0.2
# www.blender.org
mtllib epastar_collision.mtl
o ESPAStar_PickNik_Host.001
v 0.819150 0.000000 -0.304800
v 0.627505 0.526539 -0.304800
v 0.526539 0.627505 -0.304800
v 0.409575 0.709405 -0.304800
v -0.142244 0.806705 -0.304800
v -0.280166 0.769749 -0.304800
v -0.526540 0.627505 -0.304800
v -0.627505 0.526539 -0.304800
v -0.709405 0.409575 -0.304800
v 0.819150 0.000000 0.304800
v 0.806705 0.142244 0.304800
v 0.709405 0.409575 0.304800
v 0.627505 0.526539 0.304800
v 0.280166 0.769749 0.304800
v 0.142244 0.806705 0.304800
v -0.000000 0.819150 0.304800
v -0.627505 0.526539 0.304800
v -0.769749 0.280166 0.304800
v -0.819150 -0.000000 0.304800
v -0.806705 -0.142244 0.304800
v -0.709405 -0.409575 0.304800
v -0.627505 -0.526539 0.304800
v 0.000000 -0.819150 0.304800
v 0.142244 -0.806705 0.304800
v 0.709405 -0.409575 0.304800
v -0.769749 -0.280166 0.304800
v -0.526539 -0.627505 0.304800
v -0.409575 -0.709405 0.304800
v -0.280166 -0.769749 0.304800
v -0.142244 -0.806705 0.304800
v 0.280166 -0.769749 0.304800
v 0.409575 -0.709405 0.304800
v 0.526540 -0.627505 0.304800
v 0.627505 -0.526539 0.304800
v 0.769749 -0.280166 0.304800
v 0.806705 -0.142244 0.304800
v 0.769749 0.280166 0.304800
v 0.526539 0.627505 0.304800
v 0.409575 0.709405 0.304800
v -0.142244 0.806705 0.304800
v -0.280166 0.769749 0.304800
v -0.409575 0.709405 0.304800
v -0.526539 0.627505 0.304800
v -0.709405 0.409575 0.304800
v -0.806705 0.142244 0.304800
v 0.806705 0.142244 -0.304800
v 0.769749 0.280166 -0.304800
v 0.709405 0.409575 -0.304800
v 0.280166 0.769749 -0.304800
v 0.142244 0.806705 -0.304800
v -0.000000 0.819150 -0.304800
v -0.409575 0.709405 -0.304800
v -0.769749 0.280166 -0.304800
v -0.806705 0.142244 -0.304800
v -0.806705 -0.142244 -0.304800
v -0.627505 -0.526539 -0.304800
v -0.409575 -0.709405 -0.304800
v -0.280166 -0.769749 -0.304800
v 0.142244 -0.806705 -0.304800
v 0.280166 -0.769749 -0.304800
v 0.709405 -0.409575 -0.304800
v 0.806705 -0.142244 -0.304800
v -0.819150 -0.000000 -0.304800
v -0.769749 -0.280166 -0.304800
v -0.709405 -0.409575 -0.304800
v -0.526539 -0.627505 -0.304800
v -0.142244 -0.806705 -0.304800
v 0.000000 -0.819150 -0.304800
v 0.409575 -0.709405 -0.304800
v 0.526539 -0.627505 -0.304800
v 0.627505 -0.526539 -0.304800
v 0.769749 -0.280166 -0.304800
v -0.072304 -0.658225 0.457834
v -0.072999 -0.659603 0.457597
v -0.072707 -0.660068 0.457305
v -0.072152 -0.659888 0.457305
v -0.072696 -0.659158 0.457756
v -0.072423 -0.659019 0.457756
v -0.072206 -0.658802 0.457756
v -0.193321 -0.544013 0.457911
v -0.072999 -0.658225 0.457911
v -0.193321 -0.659603 0.457597
v -0.193321 -0.658225 0.457911
v -0.194831 -0.660303 0.456602
v -0.194115 -0.660668 0.456602
v -0.194641 -0.659545 0.457305
v -0.194115 -0.658802 0.457756
v -0.193613 -0.660068 0.457305
v -0.193898 -0.659019 0.457756
v -0.193625 -0.659158 0.457756
v 0.193321 0.658225 0.457911
v 0.193321 0.544013 0.457911
v 0.193321 0.659603 0.457597
v 0.194831 0.660303 0.456602
v 0.194115 0.660668 0.456602
v 0.194641 0.659545 0.457305
v 0.194255 0.658528 0.457756
v 0.194115 0.658802 0.457756
v 0.193613 0.660068 0.457305
v 0.193898 0.659019 0.457756
v 0.193625 0.659158 0.457756
v 0.194242 0.543544 0.457738
v 0.072999 0.658225 0.457911
v 0.072999 0.659603 0.457597
v 0.072707 0.660068 0.457305
v 0.072152 0.659888 0.457305
v 0.072696 0.659158 0.457756
v 0.072423 0.659019 0.457756
v 0.072206 0.658802 0.457756
v -0.708025 -0.006688 0.427723
v -0.710507 -0.006688 0.426528
v -0.709403 -0.006688 0.427409
v -0.708732 -0.006688 0.427644
v -0.710507 -0.016366 0.425575
v -0.710005 -0.016464 0.426068
v -0.709403 -0.016538 0.426439
v -0.708732 -0.016584 0.426669
v -0.710005 -0.025864 0.423216
v -0.709403 -0.026008 0.423566
v -0.710005 -0.006688 0.427031
v -0.710005 0.006688 0.427031
v -0.708732 0.006688 0.427644
v -0.710507 0.006688 0.426528
v -0.709403 0.006688 0.427409
v -0.708025 0.006688 0.427723
v -0.710005 0.025864 0.423216
v -0.709403 0.026008 0.423566
v -0.710507 0.016366 0.425575
v -0.710005 0.016464 0.426068
v -0.709403 0.016538 0.426439
v -0.708732 0.016583 0.426669
vn -0.1954 -0.2652 0.9442
vn -0.2789 -0.2302 0.9323
vn -0.3333 -0.4427 0.8324
vn -0.1208 -0.2847 0.9510
vn 0.8560 -0.0802 0.5107
vn 0.1954 0.2652 0.9442
vn 0.2606 0.1996 0.9446
vn 0.3333 0.4428 0.8324
vn 0.1033 0.3156 0.9432
vn 0.1459 0.5741 0.8057
vn 0.1237 0.3443 0.9307
vn -0.0904 0.3079 0.9471
vn -0.0971 0.4972 0.8622
vn -0.0771 0.5750 0.8145
vn -0.2053 0.4790 0.8535
vn -0.1637 0.2477 0.9549
vn -0.5863 -0.4282 0.6876
vn -0.1556 0.1517 0.9761
vn -0.2731 -0.1400 0.9517
vn -0.2844 -0.0398 0.9579
vn -0.4291 -0.0977 0.8980
vn -0.4377 -0.1646 0.8839
vn -0.4293 0.1754 0.8860
vn -0.4523 0.2604 0.8530
vn -0.5439 0.2445 0.8027
vn -0.6037 0.1418 0.7845
vn -1.0000 -0.0000 -0.0000
vn -0.9962 -0.0872 -0.0000
vn -0.9962 0.0872 -0.0000
vn -0.9659 -0.2588 -0.0000
vn -0.0000 -0.0000 -1.0000
vn -0.3923 0.2747 -0.8779
vn -0.5559 0.4665 -0.6880
vn -0.6975 0.6975 -0.1644
vn -0.1365 0.5094 -0.8496
vn -0.2455 0.9164 -0.3162
vn -0.8940 -0.4169 -0.1644
vn -0.4443 -0.2072 -0.8716
vn -0.9659 0.2588 -0.0000
vn -0.7462 -0.0655 0.6625
vn -0.7378 -0.0573 0.6726
vn -0.8011 -0.0672 0.5947
vn -0.7461 -0.0000 0.6659
vn -0.7729 -0.0749 0.6301
vn -0.7463 0.0653 0.6624
vn -0.9063 -0.4226 -0.0000
vn -0.6036 -0.1415 0.7846
vn -0.7194 -0.0934 0.6883
vn -0.6699 -0.1795 0.7204
vn -0.6716 -0.1823 0.7181
vn -0.7071 -0.0000 0.7071
vn -0.9063 0.4226 -0.0000
vn -0.1950 -0.6816 0.7052
vn -0.2265 -0.5442 0.8078
vn -0.3457 -0.6081 0.7146
vn -0.5904 -0.0513 0.8055
vn -0.7245 0.0854 0.6840
vn -0.7436 0.0697 0.6649
vn -0.7087 0.0423 0.7042
vn -0.6717 0.1824 0.7181
vn -0.6699 0.1795 0.7204
vn -0.8192 -0.5736 -0.0000
vn -0.5904 0.0513 0.8054
vn -0.4326 0.0889 0.8972
vn -0.5515 -0.2422 0.7983
vn -0.5370 -0.2466 0.8067
vn -0.5356 -0.2498 0.8067
vn -0.5363 -0.2535 0.8051
vn -0.8192 0.5736 -0.0000
vn -0.7660 0.6428 -0.0000
vn -0.4677 -0.2567 0.8458
vn -0.5515 0.2422 0.7983
vn -0.5358 0.2537 0.8053
vn -0.5356 0.2498 0.8067
vn -0.7071 -0.7071 -0.0000
vn -0.5304 -0.2507 0.8098
vn -0.3829 -0.2640 0.8853
vn -0.3936 -0.2756 0.8770
vn -0.3924 -0.2721 0.8786
vn -0.3919 -0.2748 0.8780
vn -0.2365 0.0414 0.9708
vn -0.7071 0.7071 -0.0000
vn -0.2442 0.1498 0.9581
vn -0.3511 0.2702 0.8965
vn -0.5304 0.2507 0.8098
vn -0.3888 0.2752 0.8793
vn -0.3891 0.2725 0.8800
vn -0.5736 -0.8192 -0.0000
vn -0.1441 -0.0677 0.9872
vn -0.1450 -0.0666 0.9872
vn -0.1745 -0.0925 0.9803
vn -0.4129 -0.4129 0.8118
vn -0.4198 -0.4116 0.8089
vn -0.0676 0.0353 0.9971
vn -0.1119 -0.0000 0.9937
vn -0.5736 0.8192 -0.0000
vn -0.1115 0.0878 0.9899
vn -0.0000 -0.5312 0.8473
vn 0.0274 -0.5251 0.8506
vn -0.0280 -0.5282 0.8487
vn 0.0642 -0.4489 0.8913
vn -0.2616 0.2604 0.9294
vn -0.2517 0.2610 0.9319
vn -0.2511 0.2622 0.9318
vn -0.2637 0.2637 0.9278
vn -0.2635 0.2651 0.9275
vn -0.4226 -0.9063 -0.0000
vn 0.1461 0.9217 0.3593
vn 0.0692 0.9429 0.3258
vn -0.0000 -0.0000 1.0000
vn 0.1064 -0.0446 0.9933
vn 0.0831 0.0659 0.9944
vn 0.2668 0.1064 0.9579
vn 0.1743 -0.0001 0.9847
vn -0.0000 0.8602 0.5099
vn -0.0585 -0.0000 0.9983
vn 0.3399 0.6104 0.7154
vn 0.1962 0.6916 0.6951
vn -0.3874 -0.5723 0.7228
vn -0.1811 -0.4384 0.8803
vn -0.3904 -0.5576 0.7326
vn -0.3952 -0.5582 0.7295
vn -0.4226 0.9063 -0.0000
vn -0.0474 0.0105 0.9988
vn 0.0102 -0.1610 0.9869
vn 0.1419 -0.3021 0.9426
vn -0.2297 0.4395 0.8684
vn -0.2488 0.3553 0.9010
vn -0.2585 0.3563 0.8979
vn -0.2588 -0.9659 -0.0000
vn 0.1966 -0.0444 0.9795
vn 0.2592 0.0452 0.9648
vn 0.1569 -0.3299 0.9309
vn 0.1103 -0.0244 0.9936
vn 0.0858 -0.1319 0.9875
vn -0.3324 -0.6523 0.6812
vn -0.0749 -0.7313 0.6779
vn 0.0073 0.1100 0.9939
vn -0.3156 -0.6767 0.6652
vn -0.3211 -0.6788 0.6604
vn -0.2588 0.9659 -0.0000
vn 0.1088 -0.1039 0.9886
vn 0.1105 -0.1139 0.9873
vn 0.1107 -0.1037 0.9884
vn -0.0090 -0.3491 0.9370
vn -0.0000 -0.3369 0.9416
vn 0.0479 -0.4311 0.9010
vn -0.2462 0.4808 0.8415
vn -0.2210 0.4740 0.8523
vn -0.0872 -0.9962 -0.0000
vn 0.0578 -0.4256 0.9031
vn 0.2005 -0.4892 0.8488
vn 0.2297 -0.4395 0.8684
vn 0.2488 -0.3553 0.9010
vn 0.2586 -0.3555 0.8982
vn 0.2519 -0.2519 0.9344
vn 0.2518 -0.2518 0.9345
vn 0.2609 -0.2473 0.9332
vn 0.2408 -0.1686 0.9558
vn 0.2201 -0.0943 0.9709
vn 0.2296 -0.0912 0.9690
vn 0.2228 -0.1039 0.9693
vn 0.1339 -0.1002 0.9859
vn -0.1981 -0.7393 0.6436
vn -0.2001 -0.7437 0.6378
vn 0.1626 -0.4389 0.8837
vn 0.0787 -0.8992 0.4304
vn 0.0838 -0.9573 0.2766
vn 0.0783 -0.6908 0.7188
vn 0.1583 -0.5908 0.7912
vn 0.1827 -0.5990 0.7796
vn 0.2210 -0.4740 0.8523
vn 0.2476 -0.4771 0.8433
vn 0.0872 -0.9962 -0.0000
vn -0.0872 0.9962 -0.0000
vn 0.2376 -0.0002 0.9714
vn 0.9406 -0.0207 0.3388
vn 0.6921 0.0605 0.7193
vn 0.2603 0.0228 0.9653
vn 0.3060 0.0820 0.9485
vn 0.3530 0.1646 0.9210
vn 0.7908 0.5537 0.2607
vn 0.6473 0.4533 0.6128
vn -0.0337 -0.7127 0.7007
vn -0.0305 -0.7318 0.6808
vn -0.0189 -0.7300 0.6832
vn -0.0592 0.6766 0.7340
vn -0.1583 0.5908 0.7912
vn -0.1792 0.6035 0.7770
vn 0.5736 -0.8192 -0.0000
vn 0.4226 -0.9063 -0.0000
vn 0.7071 -0.7071 -0.0000
vn 0.8192 -0.5736 -0.0000
vn 0.9063 -0.4226 -0.0000
vn 0.9659 -0.2588 -0.0000
vn 0.9962 -0.0872 -0.0000
vn 0.2588 -0.9659 -0.0000
vn 0.2217 -0.0194 0.9749
vn 0.9962 0.0872 -0.0000
vn 0.9659 0.2588 -0.0000
vn 0.9063 0.4226 -0.0000
vn 0.8192 0.5736 -0.0000
vn 0.7071 0.7071 -0.0000
vn 0.4129 0.4129 0.8118
vn 0.4198 0.4116 0.8089
vn 0.3874 0.5723 0.7228
vn 0.0872 0.9962 -0.0000
vn 0.1736 0.9848 -0.0000
vn 0.5736 0.8192 -0.0000
vn 0.3904 0.5576 0.7326
vn 0.3953 0.5579 0.7297
vn 0.3324 0.6523 0.6812
vn 0.2461 0.9183 0.3101
vn 0.2588 0.9659 -0.0000
vn 0.3156 0.6767 0.6652
vn 0.3211 0.6788 0.6604
vn 0.4226 0.9063 -0.0000
s 0
usemtl mat_0.004
f 19//27 63//28 55//28 20//28
f 54//29 63//29 19//29 45//29
f 20//30 55//30 64//30 26//30
f 54//31 53//31 9//31
f 54//31 7//31 52//31
f 54//31 52//31 6//31
f 54//31 5//31 51//31
f 54//31 51//31 50//31
f 54//31 50//31 49//31
f 54//31 49//31 4//31
f 54//31 2//31 48//31
f 54//31 48//31 47//31
f 54//31 47//31 46//31
f 54//31 46//31 1//31
f 54//31 1//31 62//31
f 54//31 62//31 72//31
f 54//31 72//31 61//31
f 54//31 61//31 71//31
f 54//31 69//31 60//31
f 54//31 60//31 59//31
f 54//31 59//31 68//31
f 54//31 67//31 58//31
f 54//31 58//31 57//31
f 54//31 57//31 66//31
f 54//31 66//31 56//31
f 54//31 56//31 65//31
f 54//31 64//31 55//31
f 54//31 55//31 63//31
f 53//39 54//39 45//39 18//39
f 111//43 123//43 19//44
f 123//45 45//45 19//45
f 26//49 115//50 20//49
f 123//51 111//51 120//51 121//51
f 9//52 53//52 18//52 44//52
f 129//60 18//61 45//61
f 21//62 65//62 56//62 22//62
f 21//67 118//68 26//67
f 126//73 44//74 18//74
f 22//75 56//75 66//75 27//75
f 87//79 119//80 21//79
f 127//86 17//87 44//87
f 27//88 66//88 57//88 28//88
f 87//89 83//89 117//90
f 27//92 86//93 22//92
f 52//96 7//96 43//96 42//96
f 125//97 103//97 122//97
f 82//98 88//99 75//100 74//101
f 108//102 43//103 131//104
f 43//105 17//105 131//106
f 28//107 57//107 58//107 29//107
f 81//110 80//110 83//115
f 80//116 125//116 110//116
f 80//116 110//116 83//116
f 6//123 52//123 42//123 41//123
f 80//124 103//124 125//124
f 29//130 58//130 67//130 30//130
f 36//131 92//132 73//131 35//131
f 73//134 92//135 81//134
f 103//110 80//110 81//110 91//138
f 79//142 73//143 81//143 78//144
f 77//145 90//146 82//146 74//147
f 23//150 30//150 67//150 68//150
f 34//159 25//159 79//159
f 25//160 73//160 79//161
f 25//162 35//162 73//162
f 36//163 102//163 92//163
f 24//170 31//170 75//171
f 51//175 5//175 40//175 16//175
f 102//176 10//176 97//176
f 11//180 37//180 97//180
f 37//181 12//181 97//181
f 23//184 75//185 88//186 30//184
f 16//187 40//187 105//187
f 25//193 34//193 71//193 61//193
f 35//194 25//194 61//194 72//194
f 10//196 36//196 62//196 1//196
f 31//197 24//197 59//197 60//197
f 10//198 102//198 36//198
f 37//200 11//200 46//200 47//200
f 12//201 37//201 47//201 48//201
f 38//203 13//203 2//203 3//203
f 13//204 38//204 96//205
f 39//215 14//215 95//216
f 14//217 39//217 4//217 49//217
s 1
usemtl mat_2.004
f 89//1 87//2 86//3
f 90//4 83//5 89//1
f 100//6 98//7 96//8
f 101//9 99//10 93//11
f 107//12 104//13 105//14
f 107//12 105//14 106//15
f 108//16 103//17 107//12
f 108//16 107//12 106//15
f 109//18 103//17 108//16
f 117//19 113//20 112//21
f 117//19 112//21 116//22
f 130//23 127//24 126//25
f 130//23 126//25 129//26
f 54//31 9//32 8//33
f 54//31 8//33 7//34
f 54//31 6//35 5//36
f 54//31 4//31 3//31
f 54//31 3//31 2//31
f 54//31 71//31 70//31
f 54//31 70//31 69//31
f 54//31 68//31 67//31
f 54//31 65//37 64//38
f 20//40 111//41 19//42
f 26//46 64//38 65//37 21//46
f 115//47 114//48 20//40
f 114//48 111//41 20//40
f 85//53 88//54 86//3 84//55
f 120//56 111//41 114//48 115//47
f 128//57 45//58 123//59
f 128//57 129//26 45//58
f 128//57 123//59 121//63 129//26
f 130//23 129//26 121//63 124//64
f 26//65 118//66 115//47
f 121//63 120//56 112//21 124//64
f 8//33 9//32 44//69 17//70
f 119//71 116//22 115//47 118//66
f 126//25 18//72 129//26
f 21//76 119//71 118//66
f 119//71 87//77 116//22
f 87//77 117//19 116//22
f 22//78 87//2 21//78
f 124//64 112//21 113//20 122//81
f 7//34 8//33 17//70 43//82
f 116//22 112//21 120//56 115//47
f 131//83 17//84 130//23
f 17//84 127//24 130//23
f 127//24 44//85 126//25
f 83//91 113//20 117//19
f 89//1 83//5 87//2
f 22//78 86//3 87//2
f 122//81 113//20 110//94 125//95
f 83//91 110//94 113//20
f 109//18 108//16 131//83
f 15//108 16//109 105//14 99//10
f 81//110 92//111 91//112
f 97//113 91//112 92//111 102//114
f 94//117 95//118 99//10 96//8
f 99//10 101//9 100//6 96//8
f 27//119 84//55 86//3
f 88//54 82//120 90//4
s 0
f 28//121 84//122 27//121
s 1
f 81//125 83//5 90//4 77//126
f 106//15 42//127 108//16
s 0
f 42//128 43//128 108//129
s 1
f 77//126 78//133 81//125
f 88//54 90//4 89//1 86//3
f 28//136 85//53 84//55
f 105//14 104//13 93//11 99//10
f 85//53 30//137 88//54
s 0
f 29//139 85//140 28//139
s 1
f 5//36 6//35 41//141 40//141
f 97//113 98//7 91//112
f 98//7 100//6 91//112
f 100//6 101//9 91//112
f 105//14 42//127 106//15
s 0
f 105//148 41//149 42//149
s 1
f 107//12 103//17 91//112 101//9
f 74//151 78//133 77//126
f 76//152 32//153 78//133
s 0
f 32//154 33//154 78//155
f 33//156 34//156 79//156
s 1
f 33//157 79//157 78//158
s 0
f 29//164 30//164 85//165
s 1
f 32//153 76//152 75//166
f 23//167 24//168 75//169
s 0
f 31//172 32//172 75//173
s 1
f 24//168 23//167 68//174 59//174
f 10//177 11//178 97//179
f 12//182 98//7 97//113
f 12//182 13//183 98//7
f 13//183 96//8 98//7
f 103//17 109//18 131//83 122//81
f 104//13 107//12 101//9 93//11
s 0
f 40//188 41//188 105//189
f 33//190 32//190 69//190 70//190
f 69//191 32//191 31//191 60//191
f 34//192 33//192 70//192 71//192
f 36//195 35//195 72//195 62//195
s 1
f 11//178 10//177 1//199 46//199
f 13//183 12//182 48//202 2//202
f 76//152 78//133 74//151 75//166
f 38//206 94//117 96//8
f 51//207 16//109 15//108 50//208
f 95//118 15//108 99//10
s 0
f 39//209 38//209 3//209 4//209
f 38//210 39//210 94//211
s 1
f 39//212 95//118 94//117
f 50//208 15//108 14//213 49//214
f 14//213 15//108 95//118
f 130//23 124//64 122//81 131//83
