# Blender 4.0.2
# www.blender.org
mtllib interface_collision.mtl
o Interface_Structure_ESPAStar_PickNik.001
v 0.194025 -0.767861 -0.215900
v 0.194025 -0.767861 0.215900
v 0.194025 0.767861 0.215900
v 0.194025 0.767861 -0.215900
v 0.199920 0.802299 -0.215900
v 0.762673 0.787391 -0.215900
v 0.199921 0.802299 0.215900
v 0.762673 0.787391 0.215900
v 0.199921 -0.802299 0.215900
v 0.762673 -0.787391 0.215900
v 0.199921 -0.802299 -0.215900
v 0.762673 -0.787391 -0.215900
v 0.787400 -0.762000 0.215900
v 0.787400 0.762000 -0.215900
v 0.787400 0.762000 0.215900
v 0.787400 -0.762000 -0.215900
v 0.632684 0.790835 0.038177
v 0.632684 0.790835 -0.038177
v 0.632684 -0.790834 0.038177
v 0.632684 -0.790834 -0.038177
vn -0.9857 -0.1687 -0.0000
vn -1.0000 -0.0000 -0.0000
vn -0.0000 -0.0000 -1.0000
vn 0.0265 -0.9996 -0.0000
vn -0.0000 -0.0000 1.0000
vn -0.9857 0.1687 -0.0000
vn 0.7164 -0.6977 -0.0000
vn 0.0265 0.9996 -0.0000
vn 1.0000 -0.0000 -0.0000
vn 0.7164 0.6977 -0.0000
s 0
usemtl mat_4.002
f 11//1 9//1 2//1
f 11//1 2//1 1//1
f 2//2 3//2 4//2
f 2//2 4//2 1//2
f 4//3 5//3 6//3
f 4//3 6//3 14//3
f 4//3 14//3 16//3
f 4//3 16//3 12//3
f 4//3 12//3 11//3
f 4//3 11//3 1//3
f 20//4 19//4 9//4
f 20//4 9//4 11//4
f 12//4 20//4 11//4
f 9//5 13//5 15//5
f 9//5 15//5 8//5
f 9//5 7//5 3//5
f 9//5 3//5 2//5
f 3//6 7//6 5//6
f 3//6 5//6 4//6
f 12//4 10//4 19//4
f 12//4 19//4 20//4
f 16//7 13//7 10//7
f 16//7 10//7 12//7
f 7//8 17//8 18//8
f 7//8 18//8 5//8
f 18//8 6//8 5//8
f 14//9 13//9 16//9
f 17//8 8//8 6//8
f 17//8 6//8 18//8
f 8//10 14//10 6//10
usemtl mat_6.002
f 9//5 10//5 13//5
f 9//5 8//5 7//5
f 19//4 10//4 9//4
f 14//9 15//9 13//9
f 8//8 17//8 7//8
f 8//10 15//10 14//10
