# Blender 4.0.2
# www.blender.org
mtllib rpo_suite_collision.mtl
o ModP1tical_Bench_SM_PickNik_-00.001
v 1.009650 -0.009468 -0.078235
v 1.009650 0.005540 -0.088594
v 1.009650 0.023642 -0.090792
v 1.009650 0.040693 -0.084326
v 1.009650 0.056043 -0.062088
v 1.009650 0.057150 -0.052970
v 0.792480 0.076200 0.127000
v 0.787400 0.076200 -0.127000
v 0.787400 -0.076200 0.127000
v 0.787400 -0.076200 -0.127000
v 0.949325 -0.076200 -0.101600
v 0.787400 0.076200 0.127000
v 0.792480 -0.076200 0.127000
v 0.949325 0.076200 0.101600
v 0.949325 -0.076200 0.101600
v 0.949325 0.076200 -0.101600
v 0.792480 0.076200 -0.127000
v 0.792480 -0.076200 -0.127000
v 1.009650 -0.002593 -0.084326
v 1.009650 0.014458 -0.090792
v 1.009650 0.032560 -0.088594
v 1.009650 0.047568 -0.078235
v 1.009650 0.052786 -0.070676
v 1.009650 0.056043 -0.043852
v 1.035280 -0.051785 0.092585
v 1.035280 -0.057348 0.090897
v 1.035280 -0.070657 0.079975
v 1.035280 -0.073397 0.074848
v 1.035280 -0.075085 0.069285
v 1.035280 -0.075654 0.063500
v 1.035280 -0.073397 0.052152
v 1.035280 -0.070657 0.047025
v 1.035280 -0.066969 0.042531
v 1.035280 -0.062475 0.038843
v 1.034772 -0.046000 0.093662
v 1.034772 -0.071079 0.046743
v 1.034772 -0.071079 0.080257
v 1.034772 -0.062757 0.088579
v 1.034772 -0.057543 0.091366
v 1.036179 -0.071291 0.073976
v 1.035835 -0.072186 0.074347
v 1.035835 -0.066042 0.083542
v 1.036179 -0.056476 0.088791
v 1.035835 -0.056847 0.089686
v 1.036179 -0.046000 0.090874
v 1.035835 -0.035153 0.089686
v 1.035835 -0.017656 0.063500
v 1.036179 -0.056476 0.038209
v 1.036179 -0.065357 0.044143
v 1.035835 -0.072186 0.052653
v 1.036179 -0.073374 0.063500
v 1.042900 -0.046000 0.063500
v 1.042407 -0.046000 0.069455
v 1.041317 -0.051955 0.054739
v 1.042285 -0.051955 0.060553
v 1.040476 -0.057747 0.057867
v 1.042285 -0.051955 0.066447
v 1.040942 -0.057747 0.063500
v 1.041317 -0.051955 0.072261
v 1.040476 -0.057747 0.069133
v 1.034772 -0.073866 0.051957
v 1.034772 -0.075583 0.057616
v 1.034772 -0.076162 0.063500
v 1.034772 -0.075583 0.069384
v 1.034772 -0.073866 0.075043
v 1.034772 -0.067328 0.084828
v 1.034772 -0.051884 0.093083
v 1.035280 -0.018603 0.074848
v 1.035280 -0.021343 0.079975
v 1.035280 -0.040215 0.092585
v 1.035280 -0.046000 0.093154
v 1.035280 -0.062475 0.088157
v 1.035280 -0.066969 0.084469
v 1.035280 -0.075085 0.057715
v 1.034772 -0.040116 0.093083
v 1.034772 -0.024672 0.084828
v 1.042407 -0.046000 0.057545
v 1.040942 -0.046000 0.075247
v 1.040942 -0.034252 0.063500
v 1.042285 -0.040045 0.060553
v 1.040476 -0.034252 0.069133
v 1.042285 -0.040045 0.066447
v 1.041317 -0.040045 0.072261
v 1.035835 -0.074344 0.063500
v 1.036179 -0.071291 0.053024
v 1.035835 -0.066042 0.043458
v 1.036179 -0.018626 0.063500
v 1.036179 -0.020709 0.073976
v 1.035835 -0.019814 0.074347
v 1.036179 -0.026643 0.082857
v 1.035835 -0.025958 0.083542
v 1.036179 -0.035524 0.088791
v 1.035835 -0.046000 0.091844
v 1.036179 -0.065357 0.082857
v 1.035280 -0.016915 0.069285
v 1.035280 -0.025031 0.084469
v 1.035280 -0.029525 0.088157
v 1.035280 -0.034652 0.090897
v 1.034772 -0.034457 0.091366
v 1.034772 -0.029243 0.088579
vn 0.7380 -0.1350 0.6612
vn 0.5650 -0.3454 0.7493
vn 0.7861 -0.2253 0.5756
vn 0.9604 -0.2521 -0.1185
vn 0.9682 -0.1877 -0.1652
vn 0.9832 -0.1636 -0.0811
vn 0.9831 -0.1642 0.0814
vn 0.9987 -0.0000 0.0504
vn 0.9891 -0.0678 0.1308
vn 0.9652 -0.2614 0.0011
vn 0.9700 -0.1607 0.1827
vn 0.9603 -0.2517 0.1201
vn 0.9831 0.1637 0.0817
vn 0.9859 0.1525 -0.0688
vn 0.9667 0.2556 0.0132
vn 0.9603 0.2517 0.1201
vn 0.9685 0.1409 0.2054
vn 0.7520 0.3669 0.5476
vn 0.6806 0.2992 0.6688
vn 0.7861 0.2477 0.5663
vn 0.6560 0.3903 0.6460
vn 0.8226 0.3608 0.4396
vn -1.0000 -0.0000 -0.0000
vn -0.0000 -0.0000 1.0000
vn -0.0000 1.0000 -0.0000
vn -0.0000 -0.0000 -1.0000
vn -0.0000 -1.0000 -0.0000
vn 0.1363 -0.0000 0.9907
vn 0.1597 0.0476 0.9860
vn 0.1599 -0.0000 -0.9871
vn 0.1563 -0.2111 0.9649
vn 0.1475 -0.0969 0.9843
vn 0.7071 -0.1379 0.6935
vn 0.7071 -0.0000 0.7071
vn 0.7054 -0.0695 0.7054
vn 0.7054 0.0695 0.7054
vn 0.6546 0.0797 0.7517
vn 0.6595 0.0434 0.7505
vn 0.2266 0.0955 0.9693
vn 0.4404 0.2606 0.8591
vn 0.5822 0.3833 0.7170
vn 0.6692 0.4714 0.5744
vn 0.7069 0.5188 0.4808
vn 0.7198 0.5366 0.4404
vn 0.7458 0.5875 0.3140
vn 0.7525 0.6184 0.2264
vn 0.5284 0.8428 0.1023
vn 0.3011 0.9536 -0.0000
vn 0.7827 0.6214 -0.0335
vn 0.5871 0.8036 -0.0980
vn 0.3799 0.9183 -0.1115
vn 0.4783 0.8211 -0.3114
vn 0.5212 0.7024 -0.4848
vn 0.5174 0.5675 -0.6405
vn 0.4663 0.4111 -0.7833
vn 0.3572 0.2235 -0.9069
vn 0.1764 -0.0000 -0.9843
vn 0.0004 -1.0000 -0.0000
vn 0.4477 -0.8899 0.0876
vn 0.4078 -0.8978 0.1663
vn 0.0812 -0.9771 0.1966
vn 0.5082 -0.8099 0.2930
vn 0.1682 -0.8694 0.4647
vn 0.2006 -0.7573 0.6215
vn 0.2126 -0.6199 0.7553
vn 0.4631 -0.4178 0.7816
vn 0.2042 -0.4615 0.8633
vn 0.1752 -0.2858 0.9421
vn 0.9086 -0.2235 0.3530
vn 0.9853 -0.0535 0.1620
vn 0.9571 -0.2008 0.2089
vn 0.9523 -0.0595 0.2993
vn 0.9412 -0.0473 0.3346
vn 0.9203 -0.0383 0.3893
vn 0.9203 0.0383 0.3893
vn 0.9412 0.0473 0.3346
vn 0.9523 0.0595 0.2993
vn 0.9412 0.0843 0.3273
vn 0.9203 0.1136 0.3743
vn 0.7054 0.2058 0.6783
vn 0.7054 0.4497 0.5479
vn 0.8975 0.3337 0.2884
vn 0.9203 0.3024 0.2482
vn 0.9853 0.1114 0.1292
vn 0.9412 0.2701 0.2031
vn 0.9460 0.1398 0.2925
vn 0.9523 0.2537 0.1695
vn 0.9853 0.1523 0.0767
vn 0.8781 0.4319 0.2059
vn 0.9412 0.2910 0.1718
vn 0.9474 0.3184 0.0337
vn 0.9203 0.3450 0.1844
vn 0.9662 0.2262 0.1236
vn 0.9203 0.3743 0.1136
vn 0.8219 0.5452 0.1654
vn 0.9167 0.3967 0.0482
vn 0.9225 0.3840 0.0392
vn 0.9422 0.3350 0.0033
vn 0.9562 0.2914 -0.0282
vn 0.4708 -0.2111 -0.8566
vn 0.6344 -0.3593 -0.6845
vn 0.7153 -0.4634 -0.5231
vn 0.7434 -0.5284 -0.4102
vn 0.7304 -0.5936 -0.3380
vn 0.7068 -0.6051 -0.3665
vn 0.7071 -0.5919 -0.3869
vn 0.6569 -0.6650 -0.3554
vn 0.4915 -0.8334 -0.2528
vn 0.4850 -0.8638 -0.1366
vn 0.3516 -0.9176 -0.1852
vn 0.2986 -0.9498 -0.0935
vn 0.9713 0.2225 -0.0846
vn 0.9713 0.2223 -0.0843
vn 0.9773 0.1741 -0.1203
vn 0.9774 0.1739 -0.1200
vn 0.9802 0.1311 -0.1481
vn 0.9803 0.1310 -0.1478
vn 0.9805 -0.0085 -0.1964
vn 0.9811 0.1028 -0.1637
vn 0.9924 0.0549 -0.1102
vn 0.9811 0.0900 -0.1715
vn 0.9913 0.0161 -0.1307
vn 0.9798 0.0478 -0.1939
vn 0.9882 -0.0281 -0.1508
vn 0.9765 -0.0000 -0.2156
vn 0.7071 -0.6935 -0.1380
vn 0.7054 -0.7054 -0.0695
vn 0.8226 -0.5659 0.0557
vn 0.7520 -0.6463 0.1294
vn 0.8239 -0.5237 0.2169
vn 0.7390 -0.5634 0.3693
vn 0.7071 -0.5879 0.3928
vn 0.7054 -0.5479 0.4497
vn 0.7054 -0.4497 0.5479
vn 0.7054 -0.4496 0.5479
vn 0.7054 -0.3341 0.6251
vn 0.9203 -0.1844 0.3450
vn 0.9412 -0.1718 0.2910
vn 0.9535 -0.1674 0.2506
vn 0.9579 -0.0783 0.2763
vn 0.9550 -0.0579 0.2911
vn 0.9194 -0.2177 0.3277
vn 0.9523 -0.1695 0.2537
vn 0.9550 0.0579 0.2911
vn 0.9608 -0.0143 0.2770
vn 0.9579 0.0783 0.2763
vn 0.9534 0.1676 0.2508
vn 0.9535 0.1674 0.2506
vn 0.9523 0.1695 0.2537
vn 0.9412 0.1718 0.2910
vn 0.9203 0.1844 0.3450
vn 0.9576 0.2315 0.1714
vn 0.9554 0.2456 0.1640
vn 0.9557 0.2447 0.1635
vn 0.9122 0.2490 0.3255
vn 0.9580 0.2756 0.0793
vn 0.9550 0.2911 0.0579
vn 0.9523 0.2993 0.0595
vn 0.9412 0.3273 0.0843
vn 0.9412 0.3347 0.0473
vn 0.9816 -0.0834 -0.1719
vn 0.9695 -0.0587 -0.2380
vn 0.9838 -0.0373 -0.1753
vn 0.9687 -0.0644 -0.2398
vn 0.9565 -0.1274 -0.2624
vn 0.9530 -0.1408 -0.2682
vn 0.9447 -0.1711 -0.2798
vn 0.9133 -0.2584 -0.3149
vn 0.8655 -0.3715 -0.3360
vn 0.9126 -0.2593 -0.3160
vn 0.8979 -0.2920 -0.3296
vn 0.8525 -0.4041 -0.3316
vn 0.7821 -0.4817 -0.3953
vn 0.9210 -0.2755 -0.2755
vn 0.9412 -0.2701 -0.2031
vn 0.9523 -0.2537 -0.1695
vn 0.9412 -0.2910 -0.1718
vn 0.9203 -0.3450 -0.1844
vn 0.8226 -0.5015 -0.2681
vn 0.7054 -0.6251 -0.3341
vn 0.7054 -0.6783 -0.2058
vn 0.9203 -0.3744 -0.1136
vn 0.9412 -0.3273 -0.0843
vn 0.9523 -0.2993 -0.0595
vn 0.9412 -0.3346 -0.0473
vn 0.9203 -0.3893 -0.0383
vn 0.9203 -0.3893 0.0383
vn 0.9412 -0.3346 0.0473
vn 0.9523 -0.2993 0.0595
vn 0.9853 -0.1523 0.0767
vn 0.9125 -0.4090 -0.0002
vn 0.9571 -0.2897 0.0058
vn 0.9523 -0.2537 0.1695
vn 0.9412 -0.2701 0.2031
vn 0.9203 -0.3024 0.2482
vn 0.9203 -0.2482 0.3024
vn 0.9412 -0.2031 0.2701
vn 0.9157 -0.3912 0.0923
vn 0.9557 -0.2447 0.1635
vn 0.9576 -0.2315 0.1714
vn 0.9576 -0.2315 -0.1714
vn 0.9535 -0.1674 -0.2506
vn 0.9523 -0.1695 -0.2537
vn 0.9412 -0.2031 -0.2701
vn 0.9554 -0.2455 -0.1642
vn 0.9557 -0.2447 -0.1635
vn 0.9580 -0.2756 -0.0793
vn 0.9546 -0.2920 -0.0584
vn 0.9550 -0.2911 -0.0579
vn 0.9546 -0.2921 0.0581
vn 0.9550 -0.2911 0.0579
vn 0.8968 -0.4205 0.1376
s 0
usemtl mat_8.002
f 8//23 10//23 9//23
f 8//23 9//23 12//23
f 9//24 13//24 7//24
f 9//24 7//24 12//24
f 7//25 14//25 16//25
f 7//25 16//25 17//25
f 7//25 17//25 8//25
f 7//25 8//25 12//25
f 17//26 18//26 10//26
f 17//26 10//26 8//26
f 10//27 18//27 11//27
f 10//27 11//27 15//27
f 10//27 15//27 13//27
f 10//27 13//27 9//27
f 13//28 35//28 7//28
f 35//29 14//29 7//29
f 16//30 11//30 18//30
f 16//30 18//30 17//30
f 15//31 67//31 13//31
f 67//32 35//32 13//32
f 70//36 75//36 35//38
f 75//39 14//39 35//39
f 75//40 99//40 14//40
f 100//42 76//42 14//42
f 76//43 96//43 14//43
f 96//44 69//44 14//44
f 68//46 24//46 14//46
f 24//47 6//47 14//47
f 6//48 16//48 14//48
f 5//52 23//52 16//52
f 23//53 22//53 16//53
f 22//54 4//54 16//54
f 4//55 21//55 16//55
f 21//56 3//56 16//56
f 3//57 20//57 11//57
f 3//57 11//57 16//57
f 11//58 63//58 15//58
f 65//63 37//63 15//63
f 37//64 66//64 15//64
f 66//65 38//65 15//65
f 39//68 67//68 15//68
f 43//71 45//72 25//72
f 45//73 93//73 25//73
f 93//74 71//74 25//74
f 93//76 45//76 70//76
f 45//77 92//77 70//77
f 92//78 46//78 70//78
f 46//79 98//79 70//79
f 99//80 75//80 70//80
f 91//83 69//83 96//83
f 90//86 88//87 69//87
f 89//93 95//94 68//94
f 95//95 24//95 68//95
f 95//96 6//96 24//96
f 95//97 47//97 6//97
f 47//98 87//98 6//98
f 87//99 79//99 6//99
f 20//100 2//100 11//100
f 2//101 19//101 11//101
f 19//102 1//102 11//102
f 1//103 32//103 11//103
f 36//107 61//107 11//107
f 80//112 23//113 5//113
f 80//114 22//115 23//115
f 80//116 4//117 22//117
f 77//120 21//121 4//121
f 77//122 3//123 21//123
f 77//124 20//125 3//125
f 74//127 30//127 63//127
f 27//133 73//133 66//133
f 73//134 38//134 66//134
f 72//137 44//137 26//137
f 94//139 59//139 43//139
f 59//140 78//140 43//140
f 78//141 45//141 43//142
f 72//143 94//143 43//143
f 78//144 92//144 45//144
f 83//147 90//148 92//148
f 90//149 97//149 92//149
f 97//150 46//150 92//150
f 81//153 88//154 90//155
f 79//157 87//157 88//157
f 87//158 95//158 88//158
f 87//160 47//160 95//160
f 77//161 2//162 20//162
f 77//163 54//164 2//164
f 54//165 48//165 2//165
f 48//166 19//166 2//166
f 48//167 34//167 19//167
f 33//171 1//171 19//171
f 86//175 49//175 32//175
f 49//176 85//176 32//176
f 85//177 50//177 32//177
f 31//181 74//181 61//181
f 31//182 50//182 74//182
f 50//183 85//183 74//183
f 85//184 51//184 74//184
f 51//185 84//185 74//185
f 84//186 30//186 74//186
f 84//188 51//188 29//188
f 51//189 40//189 29//189
f 40//192 94//193 27//193
f 94//194 42//194 27//194
f 42//195 73//195 27//195
f 42//197 94//197 72//197
f 40//198 60//199 94//199
f 49//202 48//202 54//202
f 49//203 34//203 48//203
f 49//204 86//204 34//204
f 56//205 85//206 49//206
f 58//208 51//209 85//209
f 58//210 40//211 51//211
s 1
usemtl mat_9.002
f 6//49 5//50 16//51
f 79//15 5//50 6//49
usemtl mat_4.003
f 25//1 39//2 26//3
f 97//18 99//19 98//20
f 100//21 99//19 97//18
f 96//22 100//21 97//18
f 67//33 25//1 35//34
f 25//1 71//35 35//34
s 0
f 71//36 70//36 35//37
s 1
f 99//19 100//21 14//41
s 0
f 69//45 68//45 14//45
s 1
f 63//59 64//60 15//61
f 64//60 65//62 15//61
f 38//66 39//2 15//67
f 39//2 25//1 67//33
f 26//3 44//69 25//1
s 0
f 93//75 70//75 71//75
s 1
f 98//20 99//19 70//80
f 96//22 76//81 100//21
f 97//18 91//82 96//22
s 0
f 89//91 68//92 69//92
s 1
f 32//104 36//105 11//106
f 61//108 62//109 11//110
f 62//109 63//111 11//110
f 62//109 74//126 63//111
f 30//128 29//129 63//59
f 29//129 64//60 63//59
f 29//129 65//62 64//60
f 29//129 28//130 65//62
f 28//130 27//131 65//62
f 27//131 37//132 65//62
f 27//131 66//133 37//132
s 0
f 73//135 72//135 38//135
s 1
f 72//136 39//2 38//66
f 72//136 26//3 39//2
f 97//18 98//20 46//151
f 34//168 33//169 19//170
f 33//169 32//172 1//173
f 33//169 86//174 32//172
f 50//178 31//179 32//104
f 31//179 61//180 32//104
f 61//180 36//105 32//104
f 74//126 62//109 61//108
f 84//187 29//129 30//128
f 41//191 28//130 29//129
f 41//191 27//131 28//130
s 0
f 42//196 72//196 73//196
s 1
f 86//174 33//169 34//168
usemtl mat_14.002
f 44//69 43//70 25//1
f 91//82 90//84 69//85
f 88//88 89//89 69//90
f 72//138 43//70 44//69
f 90//84 91//82 97//18
f 95//159 89//89 88//88
f 40//190 41//191 29//129
f 41//191 40//190 27//131
usemtl mat_15.002
f 56//4 54//5 55//6
f 57//7 52//8 53//9
f 57//7 55//6 52//8
f 58//10 56//4 55//6
f 58//10 55//6 57//7
f 59//11 57//7 53//9
f 60//12 58//10 57//7
f 60//12 57//7 59//11
f 82//13 80//14 79//15
f 82//13 79//15 81//16
f 83//17 82//13 81//16
f 79//15 80//14 5//50
f 80//14 77//118 4//119
f 78//145 83//17 92//146
f 83//17 81//16 90//152
f 81//16 79//15 88//156
f 82//13 52//8 80//14
f 52//8 77//118 80//14
f 52//8 55//6 77//118
f 55//6 54//5 77//118
f 60//12 59//11 94//200
f 53//9 78//145 59//11
f 53//9 83//17 78//145
f 53//9 82//13 83//17
f 53//9 52//8 82//13
f 56//4 49//201 54//5
f 56//4 58//10 85//207
f 58//10 60//12 40//212
