<?xml version="1.0" encoding="UTF-8" standalone="no"?>
<!-- Created with Inkscape (http://www.inkscape.org/) -->

<svg
   width="100mm"
   height="100mm"
   viewBox="0 0 100 100"
   version="1.1"
   id="svg1"
   inkscape:version="1.2.2 (b0a8486541, 2022-12-01)"
   sodipodi:docname="franka.svg"
   xmlns:inkscape="http://www.inkscape.org/namespaces/inkscape"
   xmlns:sodipodi="http://sodipodi.sourceforge.net/DTD/sodipodi-0.dtd"
   xmlns="http://www.w3.org/2000/svg"
   xmlns:svg="http://www.w3.org/2000/svg">
  <sodipodi:namedview
     id="namedview1"
     pagecolor="#ffffff"
     bordercolor="#000000"
     borderopacity="0.25"
     inkscape:showpageshadow="true"
     inkscape:pageopacity="1"
     inkscape:pagecheckerboard="false"
     inkscape:deskcolor="#ffffff"
     inkscape:document-units="mm"
     inkscape:zoom="0.75187991"
     inkscape:cx="-157.60496"
     inkscape:cy="-61.844983"
     inkscape:window-width="2560"
     inkscape:window-height="1371"
     inkscape:window-x="0"
     inkscape:window-y="0"
     inkscape:window-maximized="1"
     inkscape:current-layer="layer2"
     showgrid="false"
     inkscape:lockguides="false"
     showguides="true"
     showborder="false"
     borderlayer="true"
     shape-rendering="auto">
    <sodipodi:guide
       position="99.999999,0"
       orientation="-1,0"
       id="guide236"
       inkscape:locked="false"
       inkscape:label=""
       inkscape:color="rgb(0,134,229)" />
    <sodipodi:guide
       position="-99.999999,200"
       orientation="-1,0"
       id="guide240"
       inkscape:locked="false"
       inkscape:label=""
       inkscape:color="rgb(0,134,229)" />
    <sodipodi:guide
       position="-99.999999,0"
       orientation="0,1"
       id="guide242"
       inkscape:locked="false"
       inkscape:label=""
       inkscape:color="rgb(0,134,229)" />
    <sodipodi:guide
       position="99.999999,200"
       orientation="0,1"
       id="guide244"
       inkscape:locked="false"
       inkscape:label=""
       inkscape:color="rgb(0,134,229)" />
  </sodipodi:namedview>
  <defs
     id="defs1" />
  <g
     inkscape:label="Layer 1"
     inkscape:groupmode="layer"
     id="layer1" />
  <g
     inkscape:groupmode="layer"
     id="layer2"
     inkscape:label="Layer 2">
    <path
       d="M 96.814176,15.268731 H 75.073881 V 9.1797702 H 88.758338 V 3.3628329 H 75.889925 V -2.7261187 H 88.758338 V -15.971169 h 8.055838 z M 56.095593,1.416883 c -1.687889,0 -2.894525,0.3138636 -3.619894,0.9415903 -0.739322,0.6277269 -1.108987,1.6599914 -1.108987,3.0967853 0,1.4228496 0.369665,2.4411617 1.108987,3.0549362 0.725369,0.6137827 1.932005,0.9206703 3.619894,0.9206703 h 3.389728 V 1.416883 Z m 3.389728,-5.5658515 V -15.971169 h 8.05583 v 31.2399 H 55.2377 c -4.115105,0 -7.128202,-0.690504 -9.039278,-2.071504 -1.92503,-1.381001 -2.887549,-3.5640936 -2.887549,-6.5492841 0,-2.0645291 0.502181,-3.7593932 1.506548,-5.0845925 0.990415,-1.32520764 2.489988,-2.30167091 4.498715,-2.9293971 -1.10201,-0.2510859 -2.085449,-0.8230194 -2.950318,-1.7157853 -0.878821,-0.8788206 -1.764618,-2.2179722 -2.657384,-4.0174546 l -4.373167,-8.8718824 h 8.578939 l 3.808218,7.7628964 c 0.767227,1.5623406 1.548397,2.6294781 2.343512,3.2014115 0.781179,0.5719259 1.827387,0.8578926 3.138642,0.8578926 z M 15.586248,-10.27977 h 12.596394 l 1.987809,-5.691399 h 8.097679 l -11.571106,31.2399 h -9.604228 l -11.5711054,-31.2399 h 8.0976784 z m 10.587667,5.7960089 h -8.55801 L 21.884446,7.9452456 Z M 1.3786882,15.268731 H -7.6187409 L -18.980602,-6.1576958 V 15.268731 h -7.637349 v -31.2399 h 8.997421 L -6.2586603,5.4552586 V -15.971169 h 7.6373485 z m -35.8641632,0 h -8.05583 V 3.8650127 L -54.154259,15.268731 H -63.5074 L -48.462869,0.47528433 -65.05579,-15.971169 h 10.085479 l 12.429006,12.3034595 V -15.971169 h 8.05583 z m -52.16414,-25.548501 h 12.596396 l 1.987807,-5.691399 h 8.09768 l -11.571105,31.2399 h -9.604228 l -11.571104,-31.2399 h 8.097684 z m 10.587669,5.7960089 h -8.558009 l 4.268535,12.4290067 z"
       id="text4-6"
       style="font-weight:bold;font-size:50.8px;font-family:Sans;-inkscape-font-specification:'Sans, Bold';stroke-width:1;fill:none;stroke:#000000;stroke-opacity:1;stroke-dasharray:none"
       aria-label="FRANKA"
       sodipodi:nodetypes="cccccccccccscscsccsccccscsccccccccscccccccccccccccccccccccccccccccccccccccccccccccccc" />
  </g>
</svg>
