# Blender 4.0.2
# www.blender.org
mtllib solar_panels_collision.mtl
o Solar_Panel_PickNik002.001
v -7.481320 0.780351 0.393700
v -7.598441 0.732720 0.393700
v -7.706837 0.667632 0.393700
v -7.481320 0.780351 0.368300
v -7.598441 0.732720 0.368300
v -7.987855 -0.316228 0.393700
v -7.907293 0.463965 0.368300
v -7.987855 -0.316228 0.368300
v -7.937507 -0.416602 0.368300
v -7.937507 -0.416602 0.393700
v -7.232205 0.819150 0.393700
v -7.358264 0.809392 0.393700
v -7.937507 0.416601 0.393700
v -7.964403 0.367278 0.393700
v -7.987855 0.316227 0.393700
v -7.964403 -0.367279 0.393700
v -7.350428 -0.810574 0.393700
v -7.221639 -0.819082 0.393700
v -7.596076 -0.733897 0.368300
v -7.350428 -0.810574 0.368300
v -7.221639 -0.819082 0.368300
v -7.596076 -0.733897 0.393700
v -7.476282 -0.781943 0.393700
v -7.232205 0.819150 0.368300
v -7.358264 0.809392 0.368300
v -7.706837 0.667632 0.368300
v -7.937507 0.416601 0.368300
v -7.964403 0.367278 0.368300
v -7.987855 0.316227 0.368300
v -7.964403 -0.367279 0.368300
v -7.907293 -0.463966 0.368300
v -7.476282 -0.781943 0.368300
v -7.683055 0.641350 0.396240
v -7.911655 0.425450 0.396240
v -7.683055 -0.641350 0.396240
v -7.911655 -0.425450 0.396240
v -7.907293 0.463965 0.393700
v -7.907293 -0.463966 0.393700
v -7.706837 -0.667632 0.393700
v -7.706837 -0.667632 0.368300
v -8.013255 -0.191882 0.399994
v -8.013255 -0.191882 0.362007
v -8.013255 0.191881 0.399994
v -8.013255 0.191881 0.362007
v -2.545906 0.819150 0.393700
v -2.545906 0.819150 0.368300
v -2.286745 0.777073 0.393700
v -2.414629 0.808562 0.393700
v -2.165561 0.725496 0.368300
v -1.840604 -0.416602 0.393700
v -1.790256 -0.316228 0.393700
v -1.840604 -0.416602 0.368300
v -1.870818 -0.463965 0.393700
v -1.813708 -0.367278 0.393700
v -1.813708 0.367278 0.393700
v -1.870818 0.463965 0.393700
v -2.165561 0.725496 0.393700
v -2.535338 -0.819082 0.393700
v -2.406812 -0.807255 0.393700
v -2.281738 -0.775386 0.393700
v -2.163223 -0.724266 0.393700
v -1.813708 0.367278 0.368300
v -1.840604 0.416601 0.368300
v -1.790256 0.316227 0.393700
v -1.840604 0.416601 0.393700
v -2.406812 -0.807255 0.368300
v -2.163223 -0.724266 0.368300
v -2.054209 -0.655165 0.368300
v -1.790256 -0.316228 0.368300
v -1.790256 0.316227 0.368300
v -1.870818 0.463965 0.368300
v -2.054209 0.655165 0.368300
v -2.286745 0.777073 0.368300
v -2.414629 0.808562 0.368300
v -2.535338 -0.819082 0.368300
v -2.281738 -0.775386 0.368300
v -1.813708 -0.367278 0.368300
v -2.095056 0.641350 0.396240
v -1.866456 0.425450 0.396240
v -2.095056 -0.641350 0.396240
v -1.866456 -0.425450 0.396240
v -2.054209 0.655165 0.393700
v -1.870818 -0.463965 0.368300
v -2.054209 -0.655165 0.393700
v -3.301556 -0.191881 0.362006
v -3.301556 -0.191881 0.399994
v -3.301556 0.191881 0.362006
v -3.301556 0.191881 0.399994
vn -0.3447 0.6917 -0.6346
vn -0.4845 0.6361 0.6006
vn -0.3291 0.6628 0.6726
vn -0.3012 0.9430 -0.1417
vn -0.3085 0.9484 0.0735
vn -0.4442 -0.8959 -0.0000
vn -0.3688 -0.9196 0.1352
vn -0.3276 -0.6748 0.6613
vn 0.7009 0.3822 -0.6022
vn 0.7063 0.4120 -0.5756
vn 0.8610 0.5086 -0.0000
vn 0.0804 0.9968 -0.0000
vn 0.0007 0.0091 -1.0000
vn -0.0000 0.0100 -0.9999
vn -0.0000 1.0000 -0.0000
vn 0.0014 0.0180 0.9998
vn -0.0000 0.0143 0.9999
vn 0.1517 0.6163 0.7728
vn 0.2383 0.7195 0.6524
vn 0.3213 0.9470 -0.0000
vn 0.2391 0.9710 -0.0000
vn 0.0019 0.0075 -1.0000
vn 0.0026 0.0062 -1.0000
vn 0.0032 0.0050 -1.0000
vn 0.0037 0.0036 -1.0000
vn 0.0039 0.0025 -1.0000
vn 0.0040 0.0022 -1.0000
vn 0.0040 0.0018 -1.0000
vn 0.0042 -0.0000 -1.0000
vn -0.0000 -0.0000 -1.0000
vn -1.0000 -0.0000 -0.0000
vn -0.9798 0.2001 -0.0000
vn -0.1938 0.0890 -0.9770
vn -0.1329 0.0725 -0.9885
vn -0.0925 0.0590 -0.9940
vn -0.0388 0.0382 -0.9985
vn -0.0129 0.0216 -0.9997
vn -0.0069 0.0169 -0.9998
vn -0.0032 0.0136 -0.9999
vn -0.0009 0.0111 -0.9999
vn -0.0772 0.9970 -0.0000
vn 0.0022 0.0024 1.0000
vn 0.0457 0.0484 0.9978
vn 0.0404 0.0639 0.9971
vn 0.0199 0.0469 0.9987
vn 0.0071 0.0287 0.9996
vn -0.0000 0.0084 1.0000
vn -0.0014 0.0178 0.9998
vn -0.0066 0.0278 0.9996
vn -0.0350 0.0601 0.9976
vn 0.0059 0.1061 0.9943
vn -0.0491 0.0520 0.9974
vn -0.0257 0.0273 0.9993
vn 0.3916 0.9201 -0.0000
vn 0.5340 0.8455 -0.0000
vn 0.7217 0.6922 -0.0000
vn 0.8431 0.5378 -0.0000
vn 0.8779 0.4788 -0.0000
vn 0.9087 0.4174 -0.0000
vn 1.0000 -0.0000 -0.0000
vn 0.0040 -0.0018 -1.0000
vn 0.0040 -0.0022 -1.0000
vn 0.0039 -0.0025 -1.0000
vn 0.0037 -0.0036 -1.0000
vn 0.5482 -0.6814 -0.4849
vn 0.0516 -0.0814 -0.9953
vn 0.0032 -0.0050 -1.0000
vn 0.0027 -0.0061 -1.0000
vn 0.0019 -0.0075 -1.0000
vn 0.0008 -0.0090 -1.0000
vn -0.0000 -0.0100 -0.9999
vn -0.0616 -0.9318 -0.3576
vn -0.0059 -0.0895 -0.9960
vn -0.0007 -0.0109 -0.9999
vn -0.0031 -0.0134 -0.9999
vn -0.0067 -0.0168 -0.9998
vn -0.0129 -0.0215 -0.9997
vn -0.0388 -0.0382 -0.9985
vn -0.0925 -0.0590 -0.9940
vn -0.1329 -0.0725 -0.9885
vn -0.1938 -0.0890 -0.9770
vn -0.9798 -0.2001 -0.0000
vn -0.1207 0.0684 0.9903
vn -0.1329 0.0725 0.9885
vn -0.1938 0.0890 0.9770
vn -0.0000 -0.0000 1.0000
vn -0.9087 0.4174 -0.0000
vn -0.8779 0.4788 -0.0000
vn -0.8431 0.5378 -0.0000
vn -0.7127 0.7015 -0.0000
vn -0.5148 0.8573 -0.0000
vn -0.2297 0.9733 -0.0000
vn 0.0026 -0.0000 1.0000
vn 0.0333 -0.0000 0.9994
vn 0.0970 0.0446 0.9943
vn 0.1197 0.0653 0.9907
vn 0.1243 0.0793 0.9891
vn 0.0775 0.0743 0.9942
vn -0.0753 0.0741 0.9944
vn 0.0002 0.0585 0.9983
vn -0.1243 0.0793 0.9891
vn 0.9087 -0.4174 -0.0000
vn 0.8779 -0.4788 -0.0000
vn 0.8637 -0.5040 -0.0000
vn 0.8583 -0.5132 -0.0000
vn 0.8431 -0.5378 -0.0000
vn 0.7217 -0.6922 -0.0000
vn 0.5354 -0.8446 -0.0000
vn 0.3961 -0.9182 -0.0000
vn 0.2469 -0.9690 -0.0000
vn 0.0916 -0.9958 -0.0000
vn -0.0000 -1.0000 -0.0000
vn -0.0659 -0.9978 -0.0000
vn -0.2218 -0.9751 -0.0000
vn -0.3722 -0.9281 -0.0000
vn -0.5134 -0.8581 -0.0000
vn -0.7127 -0.7015 -0.0000
vn -0.8431 -0.5378 -0.0000
vn -0.8583 -0.5132 -0.0000
vn -0.8637 -0.5040 -0.0000
vn -0.8780 -0.4788 -0.0000
vn -0.8779 -0.4788 -0.0000
vn -0.9087 -0.4174 -0.0000
vn -0.1938 -0.0890 0.9770
vn -0.1329 -0.0725 0.9885
vn -0.1207 -0.0684 0.9903
vn -0.0257 -0.0273 0.9993
vn -0.0000 -0.0084 1.0000
vn 0.0022 -0.0024 1.0000
vn 0.0775 -0.0743 0.9942
vn 0.1243 -0.0793 0.9891
vn 0.1197 -0.0653 0.9907
vn 0.0970 -0.0446 0.9943
vn 0.0457 -0.0484 0.9978
vn 0.0404 -0.0638 0.9971
vn 0.0204 -0.0474 0.9987
vn 0.0075 -0.0294 0.9995
vn 0.0017 -0.0185 0.9998
vn -0.0000 -0.0143 0.9999
vn -0.0011 -0.0172 0.9999
vn -0.0062 -0.0271 0.9996
vn -0.0176 -0.0440 0.9989
vn -0.0374 -0.0625 0.9973
vn -0.0753 -0.0741 0.9944
vn -0.0491 -0.0520 0.9974
vn -0.1243 -0.0793 0.9891
s 1
usemtl mat_0.005
f 5//1 3//2 2//3
f 4//4 2//3 1//5
f 4//4 5//1 2//3
f 19//6 23//7 22//8
f 62//9 63//10 65//11
s 0
f 45//12 48//12 74//12
f 45//12 74//12 46//12
f 74//13 87//13 46//13
f 87//14 44//14 46//14
f 44//14 24//14 46//14
f 24//15 11//15 45//15
f 24//15 45//15 46//15
f 78//16 48//16 45//16
f 11//17 33//17 45//17
f 33//17 78//17 45//17
s 1
f 48//18 47//19 73//20
s 0
f 48//21 73//21 74//21
f 73//22 87//22 74//22
f 73//23 49//23 87//23
f 49//24 72//24 87//24
f 72//25 71//25 87//25
f 71//26 63//26 87//26
s 1
f 63//10 62//9 87//27
s 0
f 62//28 70//28 87//28
f 70//29 69//29 85//29
f 70//29 85//29 87//29
f 85//30 42//30 44//30
f 85//30 44//30 87//30
f 42//31 41//31 43//31
f 42//31 43//31 44//31
f 43//32 15//32 29//32
f 43//32 29//32 44//32
f 29//33 28//33 44//33
f 28//34 27//34 44//34
f 27//35 7//35 44//35
f 7//36 26//36 44//36
f 26//37 5//37 44//37
s 1
f 5//1 4//4 44//38
s 0
f 4//39 25//39 44//39
f 25//40 24//40 44//40
f 25//41 12//41 11//41
f 25//41 11//41 24//41
f 88//42 79//42 78//42
f 79//43 82//43 78//43
f 82//44 57//44 78//44
f 57//45 47//45 78//45
s 1
f 47//19 48//18 78//46
s 0
f 33//47 43//47 88//47
f 33//47 88//47 78//47
f 12//48 33//48 11//48
f 12//49 1//49 33//49
s 1
f 1//5 2//3 33//50
f 2//3 3//2 33//50
s 0
f 3//51 34//52 33//52
f 34//53 43//53 33//53
s 1
f 47//19 57//54 49//54
f 47//19 49//54 73//20
s 0
f 57//55 82//55 72//55
f 57//55 72//55 49//55
f 82//56 56//56 71//56
f 82//56 71//56 72//56
s 1
f 56//57 65//11 63//10
s 0
f 56//57 63//57 71//57
s 1
f 65//11 55//58 62//9
s 0
f 55//59 64//59 70//59
f 55//59 70//59 62//59
f 64//60 51//60 69//60
f 64//60 69//60 70//60
f 69//61 77//61 85//61
f 77//62 52//62 85//62
f 52//63 83//63 85//63
f 83//64 68//64 85//64
s 1
f 68//65 67//66 85//67
s 0
f 67//68 76//68 85//68
f 76//69 66//69 85//69
f 66//70 75//70 85//70
f 75//71 21//71 85//71
f 21//71 42//71 85//71
s 1
f 21//72 20//73 42//74
s 0
f 20//75 32//75 42//75
f 32//76 19//76 42//76
f 19//77 40//77 42//77
f 40//78 31//78 42//78
f 31//79 9//79 42//79
f 9//80 30//80 42//80
f 30//81 8//81 42//81
f 8//82 6//82 41//82
f 8//82 41//82 42//82
f 34//83 13//83 43//83
f 13//84 14//84 43//84
f 14//85 15//85 43//85
f 41//86 86//86 88//86
f 41//86 88//86 43//86
f 15//87 14//87 28//87
f 15//87 28//87 29//87
f 14//88 13//88 27//88
f 14//88 27//88 28//88
f 13//89 37//89 7//89
f 13//89 7//89 27//89
f 37//90 3//90 26//90
f 37//90 26//90 7//90
s 1
f 3//2 5//1 26//91
s 0
f 1//92 12//92 25//92
s 1
f 1//5 25//92 4//4
s 0
f 86//93 81//93 79//93
f 86//93 79//93 88//93
f 81//94 51//94 64//94
f 81//94 64//94 79//94
f 64//95 55//95 79//95
f 55//96 65//96 79//96
f 65//97 56//97 79//97
f 56//98 82//98 79//98
f 37//99 34//99 3//100
f 37//101 13//101 34//101
f 51//102 54//102 77//102
f 51//102 77//102 69//102
s 1
f 54//103 50//104 52//105
s 0
f 54//103 52//103 77//103
f 50//106 53//106 83//106
s 1
f 50//104 83//106 52//105
s 0
f 53//107 84//107 68//107
f 53//107 68//107 83//107
f 84//108 61//108 67//108
s 1
f 84//108 67//66 68//65
s 0
f 61//109 60//109 76//109
f 61//109 76//109 67//109
f 60//110 59//110 66//110
f 60//110 66//110 76//110
f 59//111 58//111 75//111
f 59//111 75//111 66//111
f 58//112 18//112 21//112
f 58//112 21//112 75//112
f 18//113 17//113 20//113
s 1
f 18//113 20//73 21//72
s 0
f 17//114 23//114 32//114
f 17//114 32//114 20//114
s 1
f 23//7 19//6 32//115
s 0
f 22//116 39//116 40//116
s 1
f 22//8 40//116 19//6
s 0
f 39//117 38//117 31//117
f 39//117 31//117 40//117
s 1
f 38//118 10//119 9//120
s 0
f 38//118 9//118 31//118
f 10//121 16//121 30//121
s 1
f 10//119 30//122 9//120
s 0
f 16//123 6//123 8//123
f 16//123 8//123 30//123
f 6//124 16//124 41//124
f 16//125 10//125 41//125
f 10//126 36//126 41//126
f 36//127 35//127 41//127
f 35//128 80//128 86//128
f 35//128 86//128 41//128
f 80//129 81//129 86//129
f 84//130 53//130 81//130
f 53//131 50//131 81//131
f 50//132 54//132 81//132
f 54//133 51//133 81//133
f 80//134 84//134 81//134
f 80//135 61//135 84//135
f 80//136 60//136 61//136
f 80//137 59//137 60//137
f 80//138 58//138 59//138
f 80//139 18//139 58//139
f 35//140 17//140 18//140
f 80//139 35//139 18//139
f 35//141 23//141 17//141
s 1
f 35//142 22//8 23//7
s 0
f 35//143 39//143 22//143
f 36//144 38//144 39//144
f 35//145 36//145 39//145
f 36//146 10//146 38//146
